<?xml version="1.0" encoding="utf-8"?>
<svg version="1.1" xmlns="http://www.w3.org/2000/svg" xmlns:xlink="http://www.w3.org/1999/xlink" viewBox="0 0 1200 1200" xml:space="preserve">
<style type="text/css">
	.hexagon{fill:#2DC5FA;}
	.text{fill:#FFFFFF;}
</style>
<switch>
	<g>
		<path class="hexagon" d="M572.4,155L208.5,354.9c-15.2,8.4-27.5,29.2-27.5,46.5v397.5c0,17.3,12.3,38.2,27.5,46.5l363.9,199.9
			c15.2,8.4,39.9,8.4,55.1,0l363.9-199.9c15.2-8.4,27.5-29.2,27.5-46.5V401.4c0-17.3-12.3-38.2-27.5-46.5L627.5,155
			c-7.6-4.2-17.6-6.3-27.5-6.3C590,148.7,580,150.8,572.4,155"/>
		<path class="text" d="M465.2,496.8c0.1,0,0.1,0,0.2,0C465.3,496.8,465.3,496.8,465.2,496.8C465.2,496.8,465.2,496.8,465.2,496.8
			 M465.1,496.8C465.1,496.8,465.2,496.8,465.1,496.8c0,0,0,0-0.1,0C465,496.8,465.1,496.8,465.1,496.8 M464.8,496.7
			C464.8,496.7,464.8,496.7,464.8,496.7C464.8,496.7,464.8,496.7,464.8,496.7C464.8,496.7,464.8,496.7,464.8,496.7 M464.7,496.7
			L464.7,496.7L464.7,496.7 M464.6,496.7C464.7,496.7,464.7,496.7,464.6,496.7c0.1,0,0.1,0,0.1,0
			C464.7,496.7,464.7,496.7,464.6,496.7L464.6,496.7 M373.5,576.2h29.8V429.8h-29.8V576.2z M466.9,496.9
			C466.9,496.9,466.9,497,466.9,496.9C466.9,497,466.9,497,466.9,496.9 M466.5,496.9c0.2,0,0.3,0,0.4,0
			C466.8,496.9,466.6,496.9,466.5,496.9 M465.7,496.8c0.1,0,0.1,0,0.2,0C465.9,496.8,465.8,496.8,465.7,496.8 M464.9,496.7
			C464.9,496.7,464.9,496.7,464.9,496.7C464.9,496.7,464.9,496.7,464.9,496.7 M464.6,496.7v-44c6.1-0.8,12.9-1.2,18.7-1.2
			c21.4,0,28.7,6.5,28.7,22.7c0,18.6-10.9,23.3-29.3,23.3c-5.8,0-11.5-0.1-17.3-0.7c0,0,0,0,0,0c-0.1,0-0.1,0-0.2,0c0,0-0.1,0-0.1,0
			c0,0-0.1,0-0.2,0c0,0,0.1,0,0.1,0c0,0-0.1,0-0.1,0c0,0,0,0,0,0c0,0-0.1,0-0.1,0c0,0,0,0,0.1,0c0,0-0.1,0-0.1,0
			C464.8,496.7,464.7,496.7,464.6,496.7C464.7,496.7,464.6,496.7,464.6,496.7L464.6,496.7 M435,432.3v143.9h29.6v-55.9
			c5.2,0.3,11.9,0.6,17.9,0.6l30,55.2h34.2l-33.4-58.6c17.2-5.2,28.1-17.4,28.1-43.3c0-39.6-26.5-46-58.8-46
			C465.1,428.3,447.7,430,435,432.3 M595.2,503c0-29.9,0.6-50.3,28.4-50.3c27.7,0,28.4,20.4,28.4,50.3c0,29.8-0.7,50.2-28.4,50.2
			C595.9,553.2,595.2,532.8,595.2,503 M565.1,503c0,53,13,74.7,58.6,74.7c45.5,0,58.5-21.7,58.5-74.7s-13-74.7-58.5-74.7
			C578.1,428.3,565.1,450,565.1,503 M710,450.5v125.6h26.7V468.4l46.5,90c7.5,14.6,14.4,19.3,25.3,19.3c11.4,0,17.9-6.8,17.9-22.3
			V429.8h-26.7v107.3l-46.5-89.6c-7.4-14.1-15.1-19.2-25.2-19.2C716.8,428.3,710,434.9,710,450.5"/>
		<path class="text" d="M459,630.8v62.8h-78.5v-62.8h-11.7v139.1h11.7v-66.1H459v66.1h11.7V630.8H459z M814.4,630.8l-64.3,64.4v-64.4
			h-11.7v139.1h11.7v-68.3l65.5,68.3h15.6L761.9,698l67.4-67.2H814.4z M555.3,645l27.6,73.8h-55.3L555.3,645z M547,637.3
			l-50.6,132.5h12l15.5-41.3h62.7l15.4,41.3h12.5l-50-132.5c-2-5.2-4.7-7.9-8.8-7.9C551.6,629.4,549,632,547,637.3 M626.3,700.3
			c0,49.3,10.8,71,55.4,71c11.5,0,21.7-1.2,30.4-2.9l-1.1-9.4c-7.7,1.1-15.4,2.1-23.2,2.1c-43.9,0-49.6-19.9-49.6-60.7
			c0-40.7,4.8-60.8,49.6-60.8c7.5,0,16,1.1,23.1,2.2l1.1-9.7c-8.7-1.7-19.2-2.7-30.4-2.7C637.1,629.4,626.3,650.9,626.3,700.3"/>
	</g>
</switch>
</svg>
